#!OML:ASF H:\Dans Jumps\Project 1\Capture day 1\Session 1\subject.ASF
:FULLY-SPECIFIED
:DEGREES
474
root 0.443043 17.7223 -1.66833 7.31328 0.875165 -0.793709
lowerback -1.09099 -0.400076 -0.449459
upperback 4.33334 -0.591725 1.68353
thorax 5.1105 -0.351279 1.96196
lowerneck -12.2344 0.162634 -2.00272
upperneck 35.3014 0.595724 0.563713
head 14.0724 0.0695101 0.674723
rclavicle 5.96354e-016 5.56597e-015
rhumerus -19.4424 -21.2024 -81.561
rradius 21.3276
rwrist 37.2777
rhand -19.9736 -26.2725
rfingers 7.12502
rthumb 6.36531 -56.1569
lclavicle 5.96354e-016 5.56597e-015
lhumerus -17.2198 -2.72235 90.5182
lradius 18.0008
lwrist 3.09552
lhand -26.1616 -5.21612
lfingers 7.12502
lthumb 0.389707 24.7633
rfemur -15.2528 -2.77697 19.0194
rtibia 24.3517
rfoot -14.2726 -2.16885
rtoes 11.3195
lfemur -14.27 6.66923 -18.153
ltibia 19.948
lfoot -10.2697 4.9707
ltoes 3.16787
475
root 0.442082 17.7223 -1.66567 7.30347 0.881156 -0.795741
lowerback -1.1012 -0.401363 -0.437456
upperback 4.32958 -0.593963 1.68494
thorax 5.11235 -0.351915 1.9565
lowerneck -12.2293 0.159347 -2.01005
upperneck 35.3014 0.590461 0.570192
head 14.0713 0.0671608 0.677823
rclavicle 7.45443e-015 -7.15625e-015
rhumerus -19.4378 -21.1723 -81.5475
rradius 21.3558
rwrist 37.2291
rhand -19.9657 -26.2899
rfingers 7.12502
rthumb 6.37289 -56.1741
lclavicle 7.45443e-015 -7.15625e-015
lhumerus -17.2435 -2.7309 90.5154
lradius 18.0045
lwrist 3.07953
lhand -26.1428 -5.19814
lfingers 7.12502
lthumb 0.407858 24.7812
rfemur -15.2253 -2.77664 19.0247
rtibia 24.3402
rfoot -14.2776 -2.1745
rtoes 11.3167
lfemur -14.2431 6.66836 -18.1448
ltibia 19.9342
lfoot -10.2723 4.96949
ltoes 3.14952
476
root 0.441104 17.7223 -1.66294 7.2949 0.887514 -0.79673
lowerback -1.11398 -0.402784 -0.426835
upperback 4.32487 -0.596326 1.68624
thorax 5.11469 -0.352663 1.95169
lowerneck -12.2195 0.155486 -2.02205
upperneck 35.2999 0.584016 0.580897
head 14.0684 0.0642647 0.68325
rclavicle -5.36719e-015 -3.57812e-015
rhumerus -19.4321 -21.165 -81.5291
rradius 21.3707
rwrist 37.2061
rhand -19.9626 -26.3025
rfingers 7.12502
rthumb 6.37592 -56.1865
lclavicle -5.36719e-015 -3.57812e-015
lhumerus -17.2716 -2.73659 90.5115
lradius 18.0071
lwrist 3.05326
lhand -26.1215 -5.18674
lfingers 7.12502
lthumb 0.4284 24.7926
rfemur -15.1988 -2.77643 19.0291
rtibia 24.3284
rfoot -14.2805 -2.18193
rtoes 11.3059
lfemur -14.2153 6.66655 -18.1375
ltibia 19.9177
lfoot -10.2752 4.9671
ltoes 3.14072
477
root 0.440177 17.7225 -1.66018 7.28855 0.894245 -0.78923
lowerback -1.12827 -0.405007 -0.425286
upperback 4.31881 -0.599312 1.68538
thorax 5.11658 -0.354035 1.94968
lowerneck -12.2098 0.150879 -2.03573
upperneck 35.2994 0.576563 0.592618
head 14.066 0.0608327 0.689238
rclavicle -5.86415e-015 5.1684e-015
rhumerus -19.4239 -21.1755 -81.5077
rradius 21.3727
rwrist 37.2059
rhand -19.9607 -26.3111
rfingers 7.12502
rthumb 6.37774 -56.1951
lclavicle -5.86415e-015 5.1684e-015
lhumerus -17.3037 -2.7438 90.5073
lradius 18.009
lwrist 3.02663
lhand -26.0956 -5.17125
lfingers 7.12502
lthumb 0.453397 24.808
rfemur -15.175 -2.77828 19.0239
rtibia 24.3181
rfoot -14.283 -2.18739
rtoes 11.2971
lfemur -14.1871 6.66223 -18.1398
ltibia 19.8973
lfoot -10.278 4.96345
ltoes 3.15497
